# Extracted from deps/UniVTAC/assets/objects/HDMI.usd
o HDMI
v -0.0022249997 -0.00695 0
v -0.0022249997 -0.00695 0
v -0.0022249997 -0.00695 0
v -0.003106055 -0.007999999 0.01
v -0.003106055 -0.007999999 0.01
v -0.003106055 -0.007999999 0.01
v -0.004237426 -0.005737258 0.01
v -0.004237426 -0.005737258 0.01
v -0.004237426 -0.005737258 0.01
v -0.0022249997 -0.00695 0.01
v -0.0022249997 -0.00695 0.01
v -0.0022249997 -0.00695 0.01
v -0.0033267746 -0.0079565225 0.01
v -0.0033267746 -0.0079565225 0.01
v -0.0033267746 -0.0079565225 0.01
v -0.0022249997 0.00695 0
v -0.0022249997 0.00695 0
v -0.0022249997 0.00695 0
v -0.0035390118 -0.007827759 0.01
v -0.0035390118 -0.007827759 0.01
v -0.0035390118 -0.007827759 0.01
v -0.0022249997 0.00695 0.01
v -0.0022249997 0.00695 0.01
v -0.0022249997 0.00695 0.01
v -0.0022249997 -0.0055600004 0
v -0.0022249997 -0.0055600004 0
v -0.003734611 -0.00761866 0.01
v -0.003734611 -0.00761866 0.01
v -0.003734611 -0.00761866 0.01
v -0.0022249997 -0.0055600004 0.01
v -0.0022249997 -0.0055600004 0.01
v -0.0039060551 -0.007337259 0.01
v -0.0039060551 -0.007337259 0.01
v -0.0039060551 -0.007337259 0.01
v 0.0022249997 -0.0055600004 0
v 0.0022249997 -0.0055600004 0
v 0.0022249997 -0.0055600004 0
v -0.0040467554 -0.006994371 0.01
v -0.0040467554 -0.006994371 0.01
v -0.0040467554 -0.006994371 0.01
v -0.0041513047 -0.006603173 0.01
v -0.0041513047 -0.006603173 0.01
v -0.0041513047 -0.006603173 0.01
v 0.0022249997 -0.0055600004 0.01
v 0.0022249997 -0.0055600004 0.01
v 0.0022249997 -0.0055600004 0.01
v -0.0022249997 0.0056989994 0.01
v -0.0022249997 0.0056989994 0.01
v -0.004215687 -0.0061786976 0.01
v -0.004215687 -0.0061786976 0.01
v -0.004215687 -0.0061786976 0.01
v -0.004237426 -0.005737258 0.03
v -0.004237426 -0.005737258 0.03
v -0.004237426 -0.005737258 0.03
v 0.0022249997 0.0056989994 0
v 0.0022249997 0.0056989994 0
v 0.0022249997 0.0056989994 0
v -0.0022249997 0.005699 0
v -0.0022249997 0.005699 0
v -0.003106055 -0.007999999 0.03
v -0.003106055 -0.007999999 0.03
v -0.003106055 -0.007999999 0.03
v 0.0022249997 0.005699 0.01
v 0.0022249997 0.005699 0.01
v 0.0022249997 0.005699 0.01
v -0.004215687 -0.0061786976 0.03
v -0.004215687 -0.0061786976 0.03
v -0.004215687 -0.0061786976 0.03
v -0.0041513047 -0.006603173 0.03
v -0.0041513047 -0.006603173 0.03
v -0.0041513047 -0.006603173 0.03
v 0.00044499995 0.00695 0
v 0.00044499995 0.00695 0
v 0.00044499995 0.00695 0
v 0.00044499995 0.00695 0
v -0.0040467554 -0.006994371 0.03
v -0.0040467554 -0.006994371 0.03
v -0.0040467554 -0.006994371 0.03
v 0.00044499995 0.00695 0.01
v 0.00044499995 0.00695 0.01
v 0.00044499995 0.00695 0.01
v 0.00044499995 0.00695 0.01
v 0.00044499995 0.00695 0.01
v 0.00044499995 -0.00695 0
v 0.00044499995 -0.00695 0
v 0.00044499995 -0.00695 0
v 0.00044499995 -0.00695 0
v -0.0039060551 -0.007337259 0.03
v -0.0039060551 -0.007337259 0.03
v -0.0039060551 -0.007337259 0.03
v -0.003734611 -0.00761866 0.03
v -0.003734611 -0.00761866 0.03
v -0.003734611 -0.00761866 0.03
v 0.00044499995 -0.00695 0.01
v 0.00044499995 -0.00695 0.01
v 0.00044499995 -0.00695 0.01
v -0.0035390118 -0.007827759 0.03
v -0.0035390118 -0.007827759 0.03
v -0.0035390118 -0.007827759 0.03
v 0.00044499995 -0.0055600004 0.01
v -0.0033267746 -0.0079565225 0.03
v -0.0033267746 -0.0079565225 0.03
v -0.0033267746 -0.0079565225 0.03
v 0.00044499995 -0.0055600004 0
v 0.00044499995 0.0056989994 0
v -0.004237426 0.005737258 0.01
v -0.004237426 0.005737258 0.01
v -0.004237426 0.005737258 0.01
v -0.003106055 0.007999999 0.01
v -0.003106055 0.007999999 0.01
v -0.003106055 0.007999999 0.01
v -0.004215687 0.0061786976 0.01
v -0.004215687 0.0061786976 0.01
v -0.004215687 0.0061786976 0.01
v 0.0004449998 -0.00695 0
v 0.0004449998 -0.00695 0
v 0.0004449998 -0.00695 0
v -0.0041513047 0.006603173 0.01
v -0.0041513047 0.006603173 0.01
v -0.0041513047 0.006603173 0.01
v -0.0040467554 0.006994371 0.01
v -0.0040467554 0.006994371 0.01
v -0.0040467554 0.006994371 0.01
v 0.0017352236 -0.0055793524 0
v 0.0017352236 -0.0055793524 0
v 0.0017352236 -0.0055793524 0
v -0.0039060551 0.007337259 0.01
v -0.0039060551 0.007337259 0.01
v -0.0039060551 0.007337259 0.01
v 0.0012576232 -0.0056662844 0
v 0.0012576232 -0.0056662844 0
v 0.0012576232 -0.0056662844 0
v -0.003734611 0.00761866 0.01
v -0.003734611 0.00761866 0.01
v -0.003734611 0.00761866 0.01
v 0.0008430199 -0.005870813 0
v 0.0008430199 -0.005870813 0
v 0.0008430199 -0.005870813 0
v -0.0035390118 0.007827759 0.01
v -0.0035390118 0.007827759 0.01
v -0.0035390118 0.007827759 0.01
v 0.0005811059 -0.0061945757 0
v 0.0005811059 -0.0061945757 0
v 0.0005811059 -0.0061945757 0
v -0.0033267746 0.0079565225 0.01
v -0.0033267746 0.0079565225 0.01
v -0.0033267746 0.0079565225 0.01
v 0.0004697827 -0.0065675336 0
v 0.0004697827 -0.0065675336 0
v 0.0004697827 -0.0065675336 0
v 0.0004697827 -0.0065675336 0
v 0.0004449996 -0.00695 0.01
v 0.0004449996 -0.00695 0.01
v 0.0004449996 -0.00695 0.01
v 0.0004449996 -0.00695 0.01
v -0.003106055 0.007999999 0.03
v -0.003106055 0.007999999 0.03
v -0.003106055 0.007999999 0.03
v -0.004237426 0.005737258 0.03
v -0.004237426 0.005737258 0.03
v -0.004237426 0.005737258 0.03
v -0.0033267746 0.0079565225 0.03
v -0.0033267746 0.0079565225 0.03
v -0.0033267746 0.0079565225 0.03
v 0.0004697825 -0.0065675336 0.01
v 0.0004697825 -0.0065675336 0.01
v 0.0004697825 -0.0065675336 0.01
v 0.00058110565 -0.0061945757 0.01
v 0.00058110565 -0.0061945757 0.01
v 0.00058110565 -0.0061945757 0.01
v -0.0035390118 0.007827759 0.03
v -0.0035390118 0.007827759 0.03
v -0.0035390118 0.007827759 0.03
v 0.00084301975 -0.005870813 0.01
v 0.00084301975 -0.005870813 0.01
v 0.00084301975 -0.005870813 0.01
v -0.003734611 0.00761866 0.03
v -0.003734611 0.00761866 0.03
v -0.003734611 0.00761866 0.03
v 0.0012576232 -0.0056662844 0.01
v 0.0012576232 -0.0056662844 0.01
v 0.0012576232 -0.0056662844 0.01
v -0.0039060551 0.007337259 0.03
v -0.0039060551 0.007337259 0.03
v -0.0039060551 0.007337259 0.03
v 0.0017352235 -0.0055793524 0.01
v 0.0017352235 -0.0055793524 0.01
v 0.0017352235 -0.0055793524 0.01
v -0.0040467554 0.006994371 0.03
v -0.0040467554 0.006994371 0.03
v -0.0040467554 0.006994371 0.03
v 0.0004449996 0.00695 0
v 0.0004449996 0.00695 0
v 0.0004449996 0.00695 0
v -0.0041513047 0.006603173 0.03
v -0.0041513047 0.006603173 0.03
v -0.0041513047 0.006603173 0.03
v -0.004215687 0.0061786976 0.03
v -0.004215687 0.0061786976 0.03
v -0.004215687 0.0061786976 0.03
v 0.003762574 -0.005737258 0.01
v 0.003762574 -0.005737258 0.01
v 0.003762574 -0.005737258 0.01
v 0.0004697825 0.0066057807 0
v 0.0004697825 0.0066057807 0
v 0.0004697825 0.0066057807 0
v 0.0004697825 0.0066057807 0
v 0.002631203 -0.007999999 0.01
v 0.002631203 -0.007999999 0.01
v 0.002631203 -0.007999999 0.01
v 0.00058110565 0.0062701185 0
v 0.00058110565 0.0062701185 0
v 0.00058110565 0.0062701185 0
v 0.003740835 -0.0061786976 0.01
v 0.003740835 -0.0061786976 0.01
v 0.003740835 -0.0061786976 0.01
v 0.00084301975 0.0059787314 0
v 0.00084301975 0.0059787314 0
v 0.00084301975 0.0059787314 0
v 0.0036764531 -0.006603173 0.01
v 0.0036764531 -0.006603173 0.01
v 0.0036764531 -0.006603173 0.01
v 0.0012576232 0.005794656 0
v 0.0012576232 0.005794656 0
v 0.0012576232 0.005794656 0
v 0.0035719036 -0.006994371 0.01
v 0.0035719036 -0.006994371 0.01
v 0.0035719036 -0.006994371 0.01
v 0.0017352235 0.0057164165 0
v 0.0017352235 0.0057164165 0
v 0.0017352235 0.0057164165 0
v 0.003431203 -0.007337259 0.01
v 0.003431203 -0.007337259 0.01
v 0.003431203 -0.007337259 0.01
v 0.003259759 -0.00761866 0.01
v 0.003259759 -0.00761866 0.01
v 0.003259759 -0.00761866 0.01
v 0.0004449998 0.00695 0.01
v 0.0004449998 0.00695 0.01
v 0.0004449998 0.00695 0.01
v 0.0004449998 0.00695 0.01
v 0.00306416 -0.007827759 0.01
v 0.00306416 -0.007827759 0.01
v 0.00306416 -0.007827759 0.01
v 0.0017352236 0.0057164165 0.01
v 0.0017352236 0.0057164165 0.01
v 0.0017352236 0.0057164165 0.01
v 0.0012576232 0.005794656 0.01
v 0.0012576232 0.005794656 0.01
v 0.0012576232 0.005794656 0.01
v 0.0028519225 -0.0079565225 0.01
v 0.0028519225 -0.0079565225 0.01
v 0.0028519225 -0.0079565225 0.01
v 0.002631203 -0.007999999 0.03
v 0.002631203 -0.007999999 0.03
v 0.002631203 -0.007999999 0.03
v 0.0008430199 0.0059787314 0.01
v 0.0008430199 0.0059787314 0.01
v 0.0008430199 0.0059787314 0.01
v 0.003762574 -0.005737258 0.03
v 0.003762574 -0.005737258 0.03
v 0.003762574 -0.005737258 0.03
v 0.0005811059 0.0062701185 0.01
v 0.0005811059 0.0062701185 0.01
v 0.0005811059 0.0062701185 0.01
v 0.0004697827 0.00660578 0.01
v 0.0004697827 0.00660578 0.01
v 0.0004697827 0.00660578 0.01
v 0.0004697827 0.00660578 0.01
v 0.0028519225 -0.0079565225 0.03
v 0.0028519225 -0.0079565225 0.03
v 0.0028519225 -0.0079565225 0.03
v 0.00306416 -0.007827759 0.03
v 0.00306416 -0.007827759 0.03
v 0.00306416 -0.007827759 0.03
v 0.0001513 0.00695 0
v 0.0001513 0.00695 0
v 0.003259759 -0.00761866 0.03
v 0.003259759 -0.00761866 0.03
v 0.003259759 -0.00761866 0.03
v 0.0001513 -0.00695 0.01
v 0.0001513 -0.00695 0.01
v 0.003431203 -0.007337259 0.03
v 0.003431203 -0.007337259 0.03
v 0.003431203 -0.007337259 0.03
v 0.0001513 0.00695 0.01
v 0.0001513 0.00695 0.01
v 0.0001513 -0.00695 0
v 0.0001513 -0.00695 0
v 0.0035719036 -0.006994371 0.03
v 0.0035719036 -0.006994371 0.03
v 0.0035719036 -0.006994371 0.03
v 0.0036764531 -0.006603173 0.03
v 0.0036764531 -0.006603173 0.03
v 0.0036764531 -0.006603173 0.03
v 0.003740835 -0.0061786976 0.03
v 0.003740835 -0.0061786976 0.03
v 0.003740835 -0.0061786976 0.03
v 0.002631203 0.007999999 0.01
v 0.002631203 0.007999999 0.01
v 0.002631203 0.007999999 0.01
v 0.003762574 0.005737258 0.01
v 0.003762574 0.005737258 0.01
v 0.003762574 0.005737258 0.01
v 0.0028519225 0.0079565225 0.01
v 0.0028519225 0.0079565225 0.01
v 0.0028519225 0.0079565225 0.01
v 0.00306416 0.007827759 0.01
v 0.00306416 0.007827759 0.01
v 0.00306416 0.007827759 0.01
v 0.003259759 0.00761866 0.01
v 0.003259759 0.00761866 0.01
v 0.003259759 0.00761866 0.01
v 0.003431203 0.007337259 0.01
v 0.003431203 0.007337259 0.01
v 0.003431203 0.007337259 0.01
v 0.0035719036 0.006994371 0.01
v 0.0035719036 0.006994371 0.01
v 0.0035719036 0.006994371 0.01
v 0.0036764531 0.006603173 0.01
v 0.0036764531 0.006603173 0.01
v 0.0036764531 0.006603173 0.01
v 0.003740835 0.0061786976 0.01
v 0.003740835 0.0061786976 0.01
v 0.003740835 0.0061786976 0.01
v 0.003762574 0.005737258 0.03
v 0.003762574 0.005737258 0.03
v 0.003762574 0.005737258 0.03
v 0.002631203 0.007999999 0.03
v 0.002631203 0.007999999 0.03
v 0.002631203 0.007999999 0.03
v 0.003740835 0.0061786976 0.03
v 0.003740835 0.0061786976 0.03
v 0.003740835 0.0061786976 0.03
v 0.0036764531 0.006603173 0.03
v 0.0036764531 0.006603173 0.03
v 0.0036764531 0.006603173 0.03
v 0.0035719036 0.006994371 0.03
v 0.0035719036 0.006994371 0.03
v 0.0035719036 0.006994371 0.03
v 0.003431203 0.007337259 0.03
v 0.003431203 0.007337259 0.03
v 0.003431203 0.007337259 0.03
v 0.003259759 0.00761866 0.03
v 0.003259759 0.00761866 0.03
v 0.003259759 0.00761866 0.03
v 0.00306416 0.007827759 0.03
v 0.00306416 0.007827759 0.03
v 0.00306416 0.007827759 0.03
v 0.0028519225 0.0079565225 0.03
v 0.0028519225 0.0079565225 0.03
v 0.0028519225 0.0079565225 0.03
v 0.00044499995 -0.006949994 0.01
v 0.00044499995 -0.006949994 0.01
v 0.00044499995 0.006949998 0.01
v 0.00044499995 0.006949998 0.01
v 0.00044499995 0.006949998 0.01
f 357 81 267
f 79 355 238
f 153 100 354
f 287 82 74
f 277 17 23
f 287 74 277
f 287 277 23
f 105 55 35
f 105 35 104
f 46 37 57
f 46 57 65
f 229 55 105
f 105 73 205
f 105 205 211
f 223 229 105
f 105 211 217
f 105 217 223
f 72 192 204
f 75 83 240
f 75 240 193
f 276 73 105
f 104 85 288
f 276 105 104
f 58 16 276
f 288 1 25
f 25 58 276
f 276 104 288
f 276 288 25
f 148 115 84
f 149 85 104
f 104 35 124
f 104 124 130
f 142 149 104
f 104 130 136
f 104 136 142
f 155 117 151
f 155 151 167
f 166 150 144
f 166 144 170
f 169 143 138
f 169 138 176
f 175 137 132
f 175 132 182
f 181 131 126
f 181 126 188
f 187 125 36
f 187 36 45
f 116 154 95
f 116 95 86
f 64 56 230
f 64 230 246
f 247 231 224
f 247 224 249
f 250 225 218
f 250 218 258
f 259 219 212
f 259 212 264
f 265 213 206
f 265 206 268
f 269 207 194
f 269 194 241
f 26 3 12
f 26 12 31
f 24 18 59
f 59 26 31
f 48 24 59
f 59 31 48
f 289 87 96
f 282 11 2
f 289 96 282
f 289 282 2
f 209 255 61
f 209 61 5
f 304 328 262
f 304 262 203
f 290 293 296
f 296 260 326
f 326 332 335
f 335 338 341
f 341 344 347
f 347 350 329
f 329 156 162
f 162 171 177
f 177 183 189
f 189 195 198
f 198 159 52
f 52 66 69
f 69 76 88
f 88 91 97
f 97 101 60
f 60 254 270
f 270 273 278
f 278 283 290
f 290 296 326
f 326 335 341
f 341 347 329
f 329 162 177
f 177 189 198
f 198 52 69
f 69 88 97
f 97 60 270
f 270 278 290
f 290 326 341
f 341 329 177
f 177 198 69
f 69 97 270
f 270 290 341
f 341 177 69
f 341 69 270
f 9 54 161
f 9 161 108
f 110 157 330
f 110 330 300
f 6 62 102
f 6 102 14
f 15 103 98
f 15 98 20
f 21 99 92
f 21 92 28
f 29 93 89
f 29 89 33
f 34 90 77
f 34 77 39
f 40 78 70
f 40 70 42
f 43 71 67
f 43 67 50
f 51 68 53
f 51 53 8
f 158 111 146
f 158 146 163
f 164 147 140
f 164 140 172
f 173 141 134
f 173 134 178
f 179 135 128
f 179 128 184
f 185 129 122
f 185 122 190
f 191 123 119
f 191 119 196
f 197 120 113
f 197 113 199
f 200 114 107
f 200 107 160
f 327 303 325
f 327 325 334
f 333 324 322
f 333 322 337
f 336 321 319
f 336 319 340
f 339 318 316
f 339 316 343
f 342 315 313
f 342 313 346
f 345 312 310
f 345 310 349
f 348 309 307
f 348 307 352
f 351 306 301
f 351 301 331
f 256 210 252
f 256 252 271
f 272 253 243
f 272 243 274
f 275 244 236
f 275 236 279
f 280 237 233
f 280 233 284
f 285 234 227
f 285 227 291
f 292 228 221
f 292 221 294
f 295 222 215
f 295 215 297
f 298 216 202
f 298 202 261
f 38 41 49
f 49 7 106
f 106 112 118
f 118 121 127
f 127 133 139
f 139 145 22
f 139 22 47
f 118 127 139
f 49 106 118
f 32 38 49
f 19 27 32
f 4 13 19
f 251 208 4
f 235 242 251
f 186 44 235
f 174 180 186
f 165 168 174
f 94 353 165
f 94 165 174
f 174 186 235
f 235 251 4
f 4 19 32
f 32 49 118
f 118 139 47
f 118 47 30
f 4 32 118
f 94 174 235
f 152 94 235
f 4 118 30
f 4 30 10
f 152 235 4
f 4 10 281
f 281 152 4
f 266 356 80
f 263 266 80
f 248 257 263
f 63 245 248
f 235 44 63
f 226 232 235
f 214 220 226
f 302 201 214
f 320 323 302
f 314 317 320
f 308 311 314
f 299 305 308
f 145 109 299
f 286 22 145
f 239 286 145
f 145 299 308
f 308 314 320
f 320 302 214
f 214 226 235
f 63 248 263
f 214 235 63
f 308 320 214
f 239 145 308
f 63 263 80
f 80 239 308
f 308 214 63
f 80 308 63
f 152 353 94
