# Extracted from deps/UniVTAC/assets/objects/HDMISlot.usd
o HDMISlot
v -0.025 -0.025 0
v -0.025 -0.025 0
v -0.025 -0.025 0
v -0.003 -0.008 0.0026177973
v -0.003 -0.008 0.0026177973
v -0.003 -0.008 0.0026177973
v -0.025 -0.025 0.0125
v -0.025 -0.025 0.0125
v -0.025 -0.025 0.0125
v -0.025 0.025 0
v -0.025 0.025 0
v -0.025 0.025 0
v -0.003 0.008 0.0026177973
v -0.003 0.008 0.0026177973
v -0.003 0.008 0.0026177973
v -0.025 0.025 0.0125
v -0.025 0.025 0.0125
v -0.025 0.025 0.0125
v 0.025 -0.025 0
v 0.025 -0.025 0
v 0.025 -0.025 0
v -0.003 -0.0064000003 0.0026177973
v -0.003 -0.0064000003 0.0026177973
v 0.025 -0.025 0.0125
v 0.025 -0.025 0.0125
v 0.025 -0.025 0.0125
v 0.025 0.025 0
v 0.025 0.025 0
v 0.025 0.025 0
v 0.003 -0.0064000003 0.0026177973
v 0.003 -0.0064000003 0.0026177973
v 0.003 -0.0064000003 0.0026177973
v 0.025 0.025 0.0125
v 0.025 0.025 0.0125
v 0.025 0.025 0.0125
v 0.003 0.006559999 0.0026177973
v 0.003 0.006559999 0.0026177973
v 0.003 0.006559999 0.0026177973
v -0.003 0.00656 0.0026177973
v -0.003 0.00656 0.0026177973
v 0.0006 0.008 0.0026177973
v 0.0006 0.008 0.0026177973
v 0.0006 0.008 0.0026177973
v 0.0006 0.008 0.0026177973
v 0.0006 -0.008 0.0026177973
v 0.0006 -0.008 0.0026177973
v 0.0006 -0.008 0.0026177973
v 0.0006 -0.0064000003 0.0026177973
v 0.0006 0.006559999 0.0026177973
v 0.00059999985 -0.008 0.0026177973
v 0.00059999985 -0.008 0.0026177973
v 0.00059999985 -0.008 0.0026177973
v 0.0023396276 -0.006422276 0.0026177973
v 0.0023396276 -0.006422276 0.0026177973
v 0.0023396276 -0.006422276 0.0026177973
v 0.0016956719 -0.006522342 0.0026177973
v 0.0016956719 -0.006522342 0.0026177973
v 0.0016956719 -0.006522342 0.0026177973
v 0.0011366563 -0.0067577707 0.0026177973
v 0.0011366563 -0.0067577707 0.0026177973
v 0.0011366563 -0.0067577707 0.0026177973
v 0.00078351365 -0.0071304473 0.0026177973
v 0.00078351365 -0.0071304473 0.0026177973
v 0.00078351365 -0.0071304473 0.0026177973
v 0.000633415 -0.007559751 0.0026177973
v 0.000633415 -0.007559751 0.0026177973
v 0.000633415 -0.007559751 0.0026177973
v 0.000633415 -0.007559751 0.0026177973
v 0.00059999956 0.008 0.0026177973
v 0.00059999956 0.008 0.0026177973
v 0.00059999956 0.008 0.0026177973
v 0.0006334147 0.0076037766 0.0026177973
v 0.0006334147 0.0076037766 0.0026177973
v 0.0006334147 0.0076037766 0.0026177973
v 0.0006334147 0.0076037766 0.0026177973
v 0.00078351336 0.007217403 0.0026177973
v 0.00078351336 0.007217403 0.0026177973
v 0.00078351336 0.007217403 0.0026177973
v 0.0011366559 0.0068819933 0.0026177973
v 0.0011366559 0.0068819933 0.0026177973
v 0.0011366559 0.0068819933 0.0026177973
v 0.0016956719 0.0066701076 0.0026177973
v 0.0016956719 0.0066701076 0.0026177973
v 0.0016956719 0.0066701076 0.0026177973
v 0.0023396274 0.0065800482 0.0026177973
v 0.0023396274 0.0065800482 0.0026177973
v 0.0023396274 0.0065800482 0.0026177973
v 0.00020400003 0.008 0.0026177973
v 0.00020400003 0.008 0.0026177973
v 0.00020400003 -0.008 0.0026177973
v 0.00020400003 -0.008 0.0026177973
v -0.003 0.008 0.0125
v -0.003 0.008 0.0125
v -0.003 0.008 0.0125
v 0.00059999985 0.008 0.0125
v 0.00059999985 0.008 0.0125
v 0.00059999985 0.008 0.0125
v 0.0005999998 0.008 0.0125
v 0.0005999998 0.008 0.0125
v 0.0005999998 0.008 0.0125
v 0.0006300194 0.007644039 0.0125
v 0.0006300194 0.007644039 0.0125
v 0.0006 0.008 0.0125
v 0.0006 0.008 0.0125
v 0.0006 0.008 0.0125
v 0.0011366563 0.0068819933 0.0125
v 0.0011366563 0.0068819933 0.0125
v 0.0011366563 0.0068819933 0.0125
v 0.0007835136 0.007217403 0.0125
v 0.0007835136 0.007217403 0.0125
v 0.0007835136 0.007217403 0.0125
v 0.003 0.00656 0.0125
v 0.003 0.00656 0.0125
v 0.003 0.00656 0.0125
v 0.0016956719 0.0066701076 0.0125
v 0.0016956719 0.0066701076 0.0125
v 0.0016956719 0.0066701076 0.0125
v 0.0023396276 0.0065800482 0.0125
v 0.0023396276 0.0065800482 0.0125
v 0.0023396276 0.0065800482 0.0125
v 0.00063341495 0.0076037757 0.0125
v 0.00063341495 0.0076037757 0.0125
v 0.00063341495 0.0076037757 0.0125
v -0.003 -0.008 0.0125
v -0.003 -0.008 0.0125
v -0.003 -0.008 0.0125
v 0.0006 -0.008 0.0125
v 0.0006 -0.008 0.0125
v 0.0006 -0.008 0.0125
v 0.0006 -0.008 0.0125
v 0.00060339516 -0.007955263 0.0125
v 0.00060339516 -0.007955263 0.0125
v 0.0005999996 -0.008 0.0125
v 0.0005999996 -0.008 0.0125
v 0.0005999996 -0.008 0.0125
v 0.0006334148 -0.007559751 0.0125
v 0.0006334148 -0.007559751 0.0125
v 0.0006334148 -0.007559751 0.0125
v 0.0007835134 -0.0071304473 0.0125
v 0.0007835134 -0.0071304473 0.0125
v 0.0007835134 -0.0071304473 0.0125
v 0.0016956719 -0.006522342 0.0125
v 0.0016956719 -0.006522342 0.0125
v 0.0016956719 -0.006522342 0.0125
v 0.0011366559 -0.0067577707 0.0125
v 0.0011366559 -0.0067577707 0.0125
v 0.0011366559 -0.0067577707 0.0125
v 0.003 -0.0064000003 0.0125
v 0.003 -0.0064000003 0.0125
v 0.003 -0.0064000003 0.0125
v 0.0023396274 -0.006422276 0.0125
v 0.0023396274 -0.006422276 0.0125
v 0.0023396274 -0.006422276 0.0125
v 0.0006 -0.0079999985 0.0026177973
v 0.0006 -0.0079999985 0.0026177973
v 0.0006 -0.0079999985 0.0026177973
v 0.0006 0.007999995 0.0026177973
v 0.0006 0.007999995 0.0026177973
v 0.0006 0.007999995 0.0026177973
v 0.0006 0.007999995 0.0026177973
f 3 9 18
f 3 18 12
f 11 17 34
f 11 34 28
f 29 35 26
f 29 26 21
f 20 25 8
f 20 8 2
f 10 27 19
f 10 19 1
f 92 16 7
f 92 7 124
f 101 103 95
f 101 95 98
f 128 130 131
f 128 131 133
f 139 136 131
f 145 139 131
f 151 142 145
f 148 151 145
f 133 124 7
f 33 16 92
f 33 92 98
f 133 7 24
f 33 98 95
f 33 95 103
f 148 145 131
f 115 118 112
f 106 115 112
f 121 109 106
f 33 103 101
f 101 121 106
f 101 106 112
f 33 101 112
f 33 112 148
f 24 33 148
f 24 148 131
f 130 128 133
f 24 131 130
f 130 133 24
f 44 105 97
f 99 93 14
f 89 70 99
f 14 89 99
f 49 48 30
f 49 30 36
f 38 32 150
f 38 150 114
f 72 157 49
f 49 36 85
f 49 85 82
f 76 72 49
f 49 82 79
f 49 79 76
f 41 157 72
f 42 73 159
f 43 96 104
f 158 69 88
f 88 13 39
f 22 4 90
f 88 39 22
f 49 158 88
f 50 154 48
f 48 49 88
f 88 22 90
f 90 50 48
f 88 90 48
f 53 30 48
f 48 154 65
f 48 65 62
f 56 53 48
f 48 62 59
f 48 59 56
f 154 45 65
f 155 66 47
f 52 135 132
f 132 138 68
f 156 52 132
f 132 68 156
f 64 67 137
f 64 137 141
f 61 63 140
f 61 140 147
f 58 60 146
f 58 146 144
f 55 57 143
f 55 143 153
f 31 54 152
f 31 152 149
f 46 129 127
f 119 86 37
f 119 37 113
f 116 83 87
f 116 87 120
f 107 80 84
f 107 84 117
f 110 77 81
f 110 81 108
f 74 78 111
f 74 111 122
f 160 75 123
f 102 100 71
f 160 123 102
f 160 102 71
f 94 126 6
f 94 6 23
f 40 15 94
f 23 40 94
f 46 127 129
f 134 51 91
f 91 5 125
f 91 125 134
